<svg width="53" height="53" viewBox="0 0 53 53" fill="none" xmlns="http://www.w3.org/2000/svg">
<path d="M42.8166 20.4348C42.7203 20.2649 42.5806 20.1235 42.4119 20.0252C42.2431 19.9268 42.0513 19.875 41.8559 19.875H27.3914L29.8164 1.34626C29.8424 1.09828 29.7842 0.848757 29.6512 0.637871C29.5182 0.426984 29.318 0.267002 29.083 0.183684C28.848 0.100365 28.5918 0.0985581 28.3557 0.178554C28.1195 0.25855 27.9171 0.415693 27.7811 0.624682L10.1907 31.4425C10.0878 31.6098 10.0314 31.8016 10.0273 31.9979C10.0233 32.1943 10.0716 32.3882 10.1675 32.5596C10.2633 32.731 10.4031 32.8738 10.5725 32.9732C10.7419 33.0726 10.9347 33.125 11.1311 33.125H25.3796L23.4578 51.6816C23.4389 51.9288 23.5032 52.1751 23.6405 52.3815C23.7777 52.5878 23.9801 52.7423 24.2153 52.8205C24.4505 52.8986 24.7051 52.8958 24.9385 52.8125C25.1719 52.7292 25.3708 52.5703 25.5035 52.361L42.8033 21.5464C42.9036 21.3789 42.9577 21.1877 42.96 20.9924C42.9624 20.7971 42.9129 20.6047 42.8166 20.4348Z" fill="url(#paint0_linear_13_0)"/>
<defs>
<linearGradient id="paint0_linear_13_0" x1="34" y1="10.5" x2="26" y2="46.5" gradientUnits="userSpaceOnUse">
<stop stop-color="#31CFFD"/>
<stop offset="1" stop-color="#6C48DC"/>
</linearGradient>
</defs>
</svg>
