<?xml version="1.0" encoding="utf-8"?>
<!-- Generator: Adobe Illustrator 24.0.2, SVG Export Plug-In . SVG Version: 6.00 Build 0)  -->
<svg version="1.1" id="layer" xmlns="http://www.w3.org/2000/svg" xmlns:xlink="http://www.w3.org/1999/xlink"
	 width="857" height="153" viewBox="-108 244 857 153" preserveAspectRatio="xMidYMid meet">
<style type="text/css">
	.st0{fill:#0064A4;}
</style>
<g>
	<g>
		<path class="st0" d="M296.3,284.1c0,12.9-7.4,19.7-18.4,19.7c-11,0-18.4-6.7-18.4-19.3v-25.8h5v25.5c0,9.6,5.1,15,13.6,15
			c8.2,0,13.3-5,13.3-14.7v-25.8h5L296.3,284.1L296.3,284.1z"/>
		<path class="st0" d="M311,303h-5v-32.7h4.9v5.7c2.2-3.6,5.5-6.4,11.2-6.4c7.9,0,12.5,5.3,12.5,13.2v20.4h-4.9V284
			c0-6.1-3.3-9.8-9-9.8c-5.7,0-9.8,4.2-9.8,10.3V303H311z"/>
		<path class="st0" d="M344,263.2v-5.4h5.5v5.4H344z M344.3,303v-32.7h4.9V303H344.3z"/>
		<path class="st0" d="M383.6,270.3h5.3l-14.3,33h-4.3l-14.3-33h5.4l11,27.2L383.6,270.3z"/>
		<path class="st0" d="M407.7,299.5c4.4,0,7.6-1.8,10.3-4.6l3.1,2.8c-3.3,3.6-7.4,6.1-13.5,6.1c-9,0-16.4-6.9-16.4-17.1
			c0-9.6,6.7-17.1,15.7-17.1c9.7,0,15.3,7.8,15.3,17.3c0,0.4,0,1,0,1.5h-25.9C396.9,295.5,401.9,299.5,407.7,299.5z M417.3,284.8
			c-0.6-6-3.9-11.1-10.4-11.1c-5.7,0-10,4.7-10.7,11.1H417.3z"/>
		<path class="st0" d="M434.3,303h-4.9v-32.7h4.9v8.6c2.4-5.4,7.2-9.4,13.3-9.2v5.3h-0.4c-7.2,0-13,5.1-13,15v13H434.3z"/>
		<path class="st0" d="M464.7,303.7c-4.7,0-9.8-1.8-13.6-4.9l2.5-3.5c3.6,2.6,7.5,4.2,11.4,4.2c3.9,0,6.8-2.1,6.8-5.1v-0.1
			c0-3.3-3.9-4.6-8.2-5.8c-5.1-1.5-10.8-3.2-10.8-9.3V279c0-5.7,4.7-9.4,11.1-9.4c4,0,8.5,1.4,11.8,3.6l-2.2,3.6
			c-3.1-1.9-6.5-3.2-9.7-3.2c-3.9,0-6.4,2.1-6.4,4.7v0.1c0,3.1,4,4.3,8.5,5.7c5.1,1.5,10.5,3.5,10.5,9.4v0.1
			C476.4,300.1,471.2,303.7,464.7,303.7z"/>
		<path class="st0" d="M484.3,263.2v-5.4h5.5v5.4H484.3z M484.5,303v-32.7h4.9V303H484.5z"/>
		<path class="st0" d="M506.2,293.7c0,4,2.2,5.4,5.5,5.4c1.7,0,3.1-0.3,4.7-1.1v4.2c-1.7,0.8-3.6,1.4-5.8,1.4
			c-5.3,0-9.3-2.6-9.3-9.3v-19.8h-4.6v-4.3h4.6v-9.8h4.9v9.8h10.4v4.3h-10.4L506.2,293.7L506.2,293.7z"/>
		<path class="st0" d="M539.9,304.1c-2.8,6.8-6,9.3-11,9.3c-2.8,0-4.7-0.6-6.9-1.7l1.7-3.9c1.5,0.8,3.1,1.2,5.1,1.2
			c2.9,0,4.7-1.5,6.7-6.1l-14.8-32.6h5.4l11.9,27.3l10.5-27.3h5.1L539.9,304.1z"/>
		<path class="st0" d="M592.7,303.8c-9.8,0-16.9-7.8-16.9-17.1s7.2-17.2,17.1-17.2s17.1,7.8,17.1,17.1
			C609.9,295.9,602.6,303.8,592.7,303.8z M592.7,273.9c-7.1,0-11.9,5.7-11.9,12.8c0,7.1,5.1,12.8,12.1,12.8
			c7.1,0,12.1-5.7,12.1-12.6C604.9,279.6,599.7,273.9,592.7,273.9z"/>
		<path class="st0" d="M634.5,270.4v4.2h-10.3V303h-4.9v-28.4h-4.4v-4.3h4.4v-2.9c0-7.2,3.6-11,9.8-11c2.2,0,3.7,0.3,5.4,0.8v4.3
			c-1.8-0.6-3.1-0.8-4.7-0.8c-3.7,0-5.7,2.2-5.7,6.9v2.6L634.5,270.4L634.5,270.4z"/>
		<path class="st0" d="M280.4,377.8c-12.8,0-22.2-10.1-22.2-22.9c0-12.6,9.4-23,22.5-23c8,0,12.9,2.9,17.3,7.1l-3.5,3.6
			c-3.7-3.6-7.9-6.1-14-6.1c-9.8,0-17.2,7.9-17.2,18.3c0,10.3,7.4,18.3,17.2,18.3c6.1,0,10.1-2.4,14.3-6.4l3.3,3.2
			C293.5,374.6,288.4,377.8,280.4,377.8z"/>
		<path class="st0" d="M306.7,350.4l-1.5-4c3.6-1.7,7.2-2.8,11.9-2.8c8.9,0,14,4.6,14,13.2v20h-4.7v-5c-2.2,2.9-6.1,5.7-11.8,5.7
			c-6.1,0-12.2-3.5-12.2-10.3c0-6.9,5.7-10.7,14-10.7c4.2,0,7.2,0.6,10.1,1.4v-1.1c0-5.8-3.6-8.9-9.7-8.9
			C312.7,348.1,309.6,349.1,306.7,350.4z M307.3,367.2c0,4.2,3.7,6.7,8.2,6.7c6,0,11-3.6,11-8.9v-3.2c-2.4-0.7-5.7-1.4-9.6-1.4
			C310.6,360.4,307.3,363.1,307.3,367.2z"/>
		<path class="st0" d="M340.6,376.9v-46.3h4.9v46.3H340.6z"/>
		<path class="st0" d="M355.7,337v-5.4h5.5v5.4H355.7L355.7,337z M355.9,376.9v-32.7h4.9v32.7H355.9z"/>
		<path class="st0" d="M388,344.3v4.2h-10.3v28.4h-4.9v-28.4h-4.4v-4.3h4.4v-2.9c0-7.2,3.6-11,9.8-11c2.2,0,3.7,0.3,5.4,0.8v4.3
			c-1.8-0.6-3.1-0.8-4.7-0.8c-3.7,0-5.7,2.2-5.7,6.9v2.6H388V344.3z"/>
		<path class="st0" d="M407.3,377.8c-9.8,0-16.9-7.8-16.9-17.1s7.2-17.2,17.1-17.2c9.8,0,17.1,7.8,17.1,17.1
			C424.5,369.9,417.1,377.8,407.3,377.8z M407.3,347.8c-7.1,0-11.9,5.7-11.9,12.8c0,7.1,5.1,12.8,12.1,12.8
			c7.1,0,12.1-5.7,12.1-12.6C419.5,353.5,414.2,347.8,407.3,347.8z"/>
		<path class="st0" d="M436.8,376.9H432v-32.7h4.9v8.6c2.4-5.4,7.2-9.4,13.3-9.2v5.3h-0.4c-7.2,0-13,5.1-13,15v13H436.8z"/>
		<path class="st0" d="M461.2,376.9h-4.9v-32.7h4.9v5.7c2.2-3.6,5.5-6.4,11.2-6.4c7.9,0,12.5,5.3,12.5,13.2v20.4h-4.9v-19.1
			c0-6.1-3.3-9.8-9-9.8c-5.7,0-9.8,4.2-9.8,10.3V376.9z"/>
		<path class="st0" d="M494.2,337v-5.4h5.5v5.4H494.2L494.2,337z M494.5,376.9v-32.7h4.9v32.7H494.5z"/>
		<path class="st0" d="M511.4,350.4l-1.5-4c3.6-1.7,7.2-2.8,11.9-2.8c8.9,0,14,4.6,14,13.2v20h-4.7v-5c-2.2,2.9-6.1,5.7-11.8,5.7
			c-6.1,0-12.2-3.5-12.2-10.3c0-6.9,5.7-10.7,14-10.7c4.2,0,7.2,0.6,10.1,1.4v-1.1c0-5.8-3.6-8.9-9.7-8.9
			C517.4,348.1,514.4,349.1,511.4,350.4z M512,367.2c0,4.2,3.7,6.7,8.2,6.7c6,0,11-3.6,11-8.9v-3.2c-2.4-0.7-5.7-1.4-9.6-1.4
			C515.3,360.4,512,363.1,512,367.2z"/>
		<path class="st0" d="M546.5,376.9h-2.2v-6.7h5.8v5.7c0,5.1-2.2,7.6-7.1,8.7l-0.7-2.2C545.6,381.4,546.8,379.7,546.5,376.9z"/>
		<path class="st0" d="M583.2,332.5v44.4h-5v-44.4H583.2z"/>
		<path class="st0" d="M599,376.9h-4.9v-32.7h4.9v8.6c2.4-5.4,7.2-9.4,13.3-9.2v5.3h-0.4c-7.2,0-13,5.1-13,15L599,376.9L599,376.9z"
			/>
		<path class="st0" d="M642.7,344.2h5.3l-14.3,33h-4.3l-14.1-33h5.4l11,27.2L642.7,344.2z"/>
		<path class="st0" d="M654.5,337v-5.4h5.5v5.4H654.5L654.5,337z M654.7,376.9v-32.7h4.9v32.7H654.7z"/>
		<path class="st0" d="M674.6,376.9h-4.9v-32.7h4.9v5.7c2.2-3.6,5.5-6.4,11.2-6.4c7.9,0,12.5,5.3,12.5,13.2v20.4h-4.9v-19.1
			c0-6.1-3.3-9.8-9-9.8s-9.8,4.2-9.8,10.3V376.9z"/>
		<path class="st0" d="M722,373.5c4.4,0,7.6-1.8,10.3-4.6l3.1,2.8c-3.3,3.6-7.4,6.1-13.5,6.1c-9,0-16.4-6.9-16.4-17.1
			c0-9.6,6.7-17.1,15.7-17.1c9.7,0,15.3,7.8,15.3,17.3c0,0.4,0,1,0,1.5h-25.9C711.1,369.4,716.2,373.5,722,373.5z M731.6,358.8
			c-0.6-6-3.9-11.1-10.4-11.1c-5.7,0-10,4.7-10.7,11.1H731.6z"/>
	</g>
	<g>
		<path class="st0" d="M-95.8,325.1v-66.4h33.2v65.7c0,17.1,8.6,25.2,21.8,25.2c13.3,0,21.9-7.8,21.9-24.3v-66.6h33.2v65.6
			c0,38-21.8,54.9-55.5,54.9C-74.8,379.2-95.8,362.1-95.8,325.1z"/>
		<path class="st0" d="M30.1,318.1v-0.3c0-34.5,26.4-61.4,62.1-61.4c24.1,0,39.7,10.1,50.2,24.6l-24.7,19.1
			c-6.8-8.3-14.6-13.9-25.8-13.9c-16.5,0-28.2,14.1-28.2,31.5v0.3c0,17.8,11.7,31.6,28.2,31.6c12.3,0,19.6-5.7,26.6-14.3l24.7,17.6
			c-11.1,15.4-26.2,26.6-52.2,26.6C57.3,379.3,30.1,353.5,30.1,318.1z"/>
		<path class="st0" d="M161.8,258.6h32.7v118.3h-32.7V258.6z"/>
	</g>
</g>
</svg>
